<svg width="31" height="8" viewBox="0 0 31 8" fill="none" xmlns="http://www.w3.org/2000/svg">
<path d="M0.113249 4L3 6.88675L5.88675 4L3 1.11325L0.113249 4ZM30.3536 4.35356C30.5488 4.15829 30.5488 3.84171 30.3536 3.64645L27.1716 0.464468C26.9763 0.269206 26.6597 0.269206 26.4645 0.464468C26.2692 0.65973 26.2692 0.976313 26.4645 1.17157L29.2929 4L26.4645 6.82843C26.2692 7.02369 26.2692 7.34027 26.4645 7.53554C26.6597 7.7308 26.9763 7.7308 27.1716 7.53554L30.3536 4.35356ZM3 4.5L30 4.5L30 3.5L3 3.5L3 4.5Z" fill="white" fill-opacity="0.5"/>
</svg>
