<svg width="10" height="14" viewBox="0 0 10 14" fill="none" xmlns="http://www.w3.org/2000/svg">
<g clip-path="url(#clip0_33_369)">
<path d="M5.00007 13.425C4.94457 13.425 4.89208 13.3999 4.85704 13.357C4.82992 13.3237 2.13547 10.0095 1.24145 8.68798C0.796495 8.03022 0.466032 7.35899 0.259572 6.69283C0.0572344 6.04142 -0.0274428 5.39207 0.00776006 4.76301C0.0767387 3.52552 0.613345 2.37128 1.55954 1.42508C2.47862 0.50616 3.70042 0 5.00007 0C6.29972 0 7.52152 0.50616 8.4406 1.42508C9.38679 2.37128 9.9234 3.52552 9.99238 4.76301C10.0274 5.39207 9.94275 6.04142 9.74073 6.69299C9.53411 7.35915 9.2038 8.03038 8.75885 8.68814C7.86482 10.0097 5.17037 13.3238 5.14326 13.3571C5.10821 13.4001 5.05573 13.4251 5.00023 13.4251L5.00007 13.425ZM5.00007 0.368838C3.79905 0.368838 2.6697 0.836624 1.82039 1.68593C1.37988 2.12644 1.0334 2.61389 0.790469 3.13464C0.547379 3.65555 0.407995 4.21039 0.376122 4.78363C0.343456 5.3686 0.422742 5.97434 0.611759 6.58373C0.807595 7.21517 1.1222 7.85373 1.54686 8.48136C2.31339 9.61435 4.42953 12.2427 5.00007 12.9477C5.57061 12.2425 7.68675 9.61419 8.45328 8.48136C8.87794 7.85373 9.19254 7.21517 9.38838 6.58373C9.5774 5.97434 9.65668 5.3686 9.62402 4.78363C9.59198 4.21039 9.4526 3.65571 9.20967 3.13464C8.96674 2.61389 8.62026 2.12644 8.17975 1.68593C7.33044 0.836624 6.20109 0.368838 5.00007 0.368838Z" fill="#C9C9C9"/>
<path d="M5.0001 8.00154C3.34509 8.00154 1.99866 6.65511 1.99866 5.0001C1.99866 3.34509 3.34509 1.99866 5.0001 1.99866C6.65511 1.99866 8.00154 3.34509 8.00154 5.0001C8.00154 6.65511 6.65511 8.00154 5.0001 8.00154ZM5.0001 2.36749C3.54854 2.36749 2.36749 3.54854 2.36749 5.0001C2.36749 6.45166 3.54854 7.63271 5.0001 7.63271C6.45166 7.63271 7.63271 6.45166 7.63271 5.0001C7.63271 3.54854 6.45166 2.36749 5.0001 2.36749Z" fill="#C9C9C9"/>
</g>
<defs>
<clipPath id="clip0_33_369">
<rect width="10" height="13.425" fill="white"/>
</clipPath>
</defs>
</svg>
