<svg width="180" height="165" viewBox="0 0 180 165" fill="none" xmlns="http://www.w3.org/2000/svg">
<g clip-path="url(#clip0_1106_27)">
<path d="M180 0H0V164.693H180V0Z" fill="#4F4C3D"/>
<path d="M26.7826 54.1951H32.1269C35.1096 54.1951 38.0922 55.4371 38.0922 59.1632C38.0922 62.8894 35.1096 64.1314 32.1269 64.1314H28.2783V72.8257H26.7914V54.1951H26.7826ZM28.2696 55.4371V62.8894H31.7508C34.2349 62.8894 36.4741 62.1459 36.4741 59.1632C36.4741 56.1806 34.2349 55.4371 31.7508 55.4371H28.2696Z" fill="white"/>
<path d="M59.1982 54.195C64.9099 54.195 65.6533 57.1777 65.6533 59.0407C65.6533 61.2799 64.1664 62.8893 62.1721 63.5103C62.9156 63.8865 63.7903 65.1285 64.1576 65.6183C64.1576 65.6183 68.5048 72.2046 68.8809 72.8257H67.1403L63.6591 67.3589C62.0409 64.8748 61.175 63.8777 59.067 63.8777H56.0844V72.8169H54.5974V54.1863H59.1895L59.1982 54.195ZM56.0931 62.6444H59.1982C62.6794 62.6444 64.0439 61.0263 64.0439 59.0407C64.0439 56.6791 62.4258 55.4371 58.5772 55.4371H56.0931V62.6444Z" fill="white"/>
<path d="M108.005 54.1951H109.492L116.568 62.8894L123.644 54.1951H125.131V72.8257H123.644V56.0581L116.437 64.8749L109.23 56.1806V72.9482H107.743V54.1951H107.988H108.005Z" fill="white"/>
<path d="M142.66 54.1951H152.972V55.4371H144.156V62.8894H152.728V64.1314H144.156V71.7061H153.226V72.9482H142.669V54.1951H142.66Z" fill="white"/>
<path d="M88.2638 33.2639H86.5232V61.586H88.2638V33.2639Z" fill="white"/>
<path d="M83.5405 53.7576H81.7999V81.3362H83.5405V53.7576Z" fill="white"/>
<path d="M93.1007 45.3169H91.3601V72.8955H93.1007V45.3169Z" fill="white"/>
<path d="M53.8277 119.315V124.204H53.4428V119.988L50.0753 124.204H49.8042V119.315H50.1803V123.575L53.5828 119.315H53.8277ZM51.1249 117.985C51.2736 118.309 51.501 118.466 51.8072 118.466C51.9646 118.466 52.0958 118.431 52.2095 118.353C52.3232 118.274 52.4195 118.152 52.5069 117.985H52.7868C52.5769 118.528 52.2533 118.808 51.8159 118.808C51.711 118.808 51.606 118.79 51.4923 118.746C51.3873 118.703 51.2911 118.641 51.2037 118.563C51.1687 118.528 51.1337 118.493 51.0987 118.458C51.0637 118.423 51.0375 118.379 51.0112 118.335C50.985 118.291 50.95 118.239 50.9238 118.187C50.8975 118.134 50.8625 118.064 50.8275 117.985H51.1249Z" fill="white"/>
<path d="M61.5161 121.764C61.5161 122.114 61.4461 122.437 61.3149 122.744C61.1837 123.05 61.0001 123.312 60.7639 123.539C60.5277 123.767 60.2566 123.942 59.9417 124.073C59.6268 124.204 59.2857 124.265 58.9183 124.265C58.6734 124.265 58.446 124.239 58.2273 124.178C58.0087 124.117 57.7987 124.038 57.6063 123.924C57.4139 123.819 57.2389 123.688 57.0815 123.539C56.9241 123.391 56.7929 123.216 56.6791 123.032C56.5654 122.849 56.4867 122.647 56.4255 122.429C56.3643 122.21 56.338 121.991 56.338 121.755C56.338 121.519 56.373 121.3 56.4255 121.082C56.4867 120.863 56.5742 120.662 56.6791 120.478C56.7929 120.294 56.9241 120.128 57.0815 119.971C57.2389 119.822 57.4139 119.691 57.6063 119.577C57.7987 119.472 57.9999 119.385 58.2273 119.324C58.4547 119.262 58.6822 119.236 58.9183 119.236C59.1545 119.236 59.3906 119.262 59.6181 119.324C59.8367 119.385 60.0467 119.463 60.2391 119.577C60.4315 119.682 60.6064 119.813 60.7639 119.971C60.9213 120.12 61.0525 120.294 61.1662 120.478C61.2799 120.662 61.3674 120.863 61.4286 121.082C61.4899 121.3 61.5161 121.519 61.5161 121.755V121.764ZM61.105 121.764C61.105 121.458 61.0525 121.178 60.9388 120.907C60.8251 120.644 60.6764 120.417 60.484 120.224C60.2916 120.032 60.0554 119.875 59.793 119.77C59.5306 119.656 59.2419 119.603 58.9358 119.603C58.6297 119.603 58.341 119.656 58.0786 119.77C57.8162 119.883 57.5801 120.032 57.3876 120.224C57.1865 120.417 57.0378 120.644 56.9241 120.907C56.8103 121.169 56.7579 121.458 56.7579 121.764C56.7579 122.07 56.8103 122.35 56.9241 122.612C57.0378 122.875 57.1952 123.102 57.3876 123.295C57.5801 123.487 57.8162 123.636 58.0786 123.749C58.341 123.863 58.6297 123.916 58.9358 123.916C59.2419 123.916 59.5306 123.863 59.793 123.749C60.0554 123.636 60.2916 123.487 60.484 123.295C60.6764 123.102 60.8339 122.875 60.9388 122.612C61.0525 122.35 61.105 122.061 61.105 121.764Z" fill="white"/>
<path d="M66.6767 119.315V119.63H64.3938V124.204H64.0177V119.315H66.6767Z" fill="white"/>
<path d="M70.7877 119.289L73.0444 124.204H72.6508L71.881 122.516H69.4932L68.7235 124.204H68.3299L70.5865 119.289H70.7964H70.7877ZM71.7324 122.201L70.674 119.901L69.6244 122.201H71.7236H71.7324Z" fill="white"/>
<path d="M82.8145 119.315V124.204H82.4297V119.988L79.0622 124.204H78.791V119.315H79.1671V123.575L82.5696 119.315H82.8145Z" fill="white"/>
<path d="M93.1182 119.315V124.204H92.7334V119.63H89.4708V124.204H89.0947V119.315H93.1182Z" fill="white"/>
<path d="M99.8533 119.315V124.204H99.4684V119.988L96.1009 124.204H95.8297V119.315H96.2058V123.575L99.6083 119.315H99.8533Z" fill="white"/>
<path d="M104.498 119.289L106.754 124.204H106.361L104.384 119.918L102.425 124.204H102.031L104.288 119.289H104.498Z" fill="white"/>
<path d="M110.857 119.289L113.113 124.204H112.72L111.95 122.516H109.562L108.792 124.204H108.399L110.656 119.289H110.865H110.857ZM111.801 122.201L110.743 119.901L109.693 122.201H111.793H111.801Z" fill="white"/>
<path d="M118.799 119.315V119.63H116.962V124.204H116.577V119.63H114.74V119.315H118.79H118.799Z" fill="white"/>
<path d="M123.653 119.315V119.63H121.362V121.589H123.592V121.904H121.362V123.89H123.706V124.204H120.977V119.315H123.644H123.653Z" fill="white"/>
<path d="M130.196 123.811C129.916 123.968 129.627 124.082 129.33 124.152C129.041 124.231 128.744 124.266 128.455 124.266C128.079 124.266 127.738 124.204 127.423 124.073C127.108 123.951 126.828 123.776 126.601 123.548C126.373 123.321 126.19 123.058 126.059 122.752C125.927 122.446 125.857 122.114 125.857 121.755C125.857 121.502 125.892 121.265 125.954 121.047C126.015 120.828 126.111 120.618 126.225 120.434C126.339 120.251 126.478 120.085 126.636 119.936C126.793 119.787 126.968 119.665 127.161 119.56C127.353 119.455 127.554 119.376 127.764 119.324C127.974 119.271 128.202 119.245 128.42 119.245C128.7 119.245 128.98 119.28 129.26 119.341C129.549 119.411 129.837 119.507 130.135 119.647V120.058C129.828 119.901 129.531 119.778 129.251 119.7C128.971 119.621 128.683 119.586 128.385 119.586C128.088 119.586 127.799 119.638 127.537 119.752C127.274 119.866 127.047 120.015 126.863 120.207C126.68 120.399 126.522 120.627 126.417 120.889C126.312 121.152 126.251 121.44 126.251 121.755C126.251 122.07 126.304 122.359 126.417 122.621C126.522 122.884 126.68 123.111 126.872 123.303C127.064 123.496 127.301 123.644 127.563 123.749C127.834 123.854 128.123 123.907 128.438 123.907C128.578 123.907 128.709 123.898 128.849 123.881C128.98 123.863 129.12 123.828 129.269 123.793C129.409 123.749 129.557 123.697 129.706 123.636C129.855 123.575 130.012 123.496 130.178 123.408V123.802L130.196 123.811Z" fill="white"/>
<path d="M49.6905 93.328V94.2989C48.6933 93.7129 47.8449 93.4242 47.1277 93.4242C46.4104 93.4242 45.8681 93.6342 45.4045 94.054C44.941 94.4739 44.7135 94.9899 44.7135 95.6022C44.7135 96.0483 44.8535 96.4419 45.1246 96.8005C45.3958 97.1591 45.9643 97.5002 46.839 97.8239C47.7049 98.1475 48.3435 98.4274 48.7371 98.6461C49.1394 98.8647 49.4718 99.1796 49.7517 99.5995C50.0316 100.019 50.1715 100.553 50.1715 101.209C50.1715 102.084 49.8479 102.827 49.2094 103.439C48.5621 104.043 47.7749 104.349 46.8478 104.349C45.9206 104.349 44.9235 104.017 43.9176 103.352V102.311C45.0284 103.124 45.9906 103.527 46.7953 103.527C47.4688 103.527 48.0461 103.308 48.5096 102.871C48.9732 102.433 49.2094 101.891 49.2094 101.253C49.2094 100.763 49.0607 100.325 48.7721 99.9406C48.4834 99.547 47.8974 99.1884 47.0139 98.8473C46.1305 98.5061 45.5008 98.235 45.1159 98.0251C44.7398 97.8151 44.4162 97.5177 44.145 97.1329C43.8739 96.748 43.7514 96.2495 43.7514 95.6459C43.7514 94.8062 44.075 94.089 44.7135 93.4942C45.3521 92.8994 46.1305 92.6021 47.0402 92.6021C47.9499 92.6021 48.807 92.8382 49.6817 93.3193L49.6905 93.328Z" fill="white"/>
<path d="M67.4377 92.7507V93.4855H63.1518V104.183H62.2596V93.4855H57.9737V92.7507H67.4464H67.4377Z" fill="white"/>
<path d="M84.3102 92.7507H85.1937V98.9871C85.1937 100.693 84.7476 102.014 83.8554 102.941C82.9632 103.868 81.8174 104.331 80.4004 104.331C78.9834 104.331 77.8464 103.877 76.9542 102.958C76.062 102.04 75.6159 100.789 75.6159 99.1883V92.7419H76.5081V99.1533C76.5081 100.518 76.8667 101.585 77.5927 102.355C78.3187 103.124 79.2546 103.509 80.4004 103.509C81.5462 103.509 82.4996 103.124 83.2169 102.346C83.9429 101.567 84.3015 100.465 84.3015 99.0309V92.7419L84.3102 92.7507Z" fill="white"/>
<path d="M94.6227 92.7507H98.6287C100.658 92.7507 102.197 93.2843 103.264 94.3514C104.332 95.4185 104.865 96.7917 104.865 98.4799C104.865 100.168 104.34 101.498 103.282 102.573C102.224 103.649 100.728 104.192 98.7861 104.192H94.6314V92.7507H94.6227ZM95.5061 93.4855V103.448H98.7337C100.212 103.448 101.445 102.993 102.434 102.084C103.422 101.174 103.912 99.9668 103.912 98.4711C103.912 96.9754 103.431 95.8034 102.451 94.8762C101.48 93.949 100.221 93.4855 98.6812 93.4855H95.5148H95.5061Z" fill="white"/>
<path d="M130.17 92.6021C131.858 92.6021 133.292 93.1706 134.473 94.3077C135.645 95.4448 136.24 96.8355 136.24 98.4711C136.24 100.107 135.654 101.489 134.473 102.626C133.301 103.763 131.866 104.331 130.17 104.331C128.473 104.331 127.056 103.763 125.884 102.626C124.712 101.489 124.126 100.107 124.126 98.4711C124.126 96.8355 124.712 95.4448 125.884 94.3077C127.056 93.1706 128.481 92.6021 130.17 92.6021ZM130.205 103.518C131.63 103.518 132.829 103.028 133.808 102.057C134.788 101.086 135.278 99.8881 135.278 98.4711C135.278 97.0542 134.788 95.8559 133.808 94.885C132.829 93.9141 131.63 93.4242 130.205 93.4242C128.779 93.4242 127.563 93.9141 126.575 94.885C125.586 95.8559 125.088 97.0542 125.088 98.4711C125.088 99.8881 125.586 101.078 126.575 102.057C127.563 103.028 128.779 103.518 130.205 103.518Z" fill="white"/>
<path d="M112.011 92.7332V93.5641H114.364V104.191H115.274V92.7332H112.011Z" fill="white"/>
</g>
<defs>
<clipPath id="clip0_1106_27">
<rect width="180" height="164.693" fill="white"/>
</clipPath>
</defs>
</svg>
